<?xml version="1.0" encoding="UTF-8" standalone="no"?>
<!DOCTYPE svg PUBLIC "-//W3C//DTD SVG 1.1//EN"
 "http://www.w3.org/Graphics/SVG/1.1/DTD/svg11.dtd">
<!-- Generated by graphviz version 2.44.0 (0)
 -->
<!-- Pages: 1 -->
<svg width="354pt" height="108pt"
 viewBox="0.00 0.00 353.94 107.64" xmlns="http://www.w3.org/2000/svg" xmlns:xlink="http://www.w3.org/1999/xlink">
<g id="graph0" class="graph" transform="scale(1 1) rotate(0) translate(4 103.64)">
<polygon fill="white" stroke="transparent" points="-4,4 -4,-103.64 349.94,-103.64 349.94,4 -4,4"/>
<!-- &#45;1 -->
<g id="node1" class="node">
<title>&#45;1</title>
<ellipse fill="lightgray" stroke="black" cx="68.97" cy="-82.67" rx="16.94" ry="16.94"/>
<text text-anchor="middle" x="68.97" y="-80.47" font-family="Times,serif" font-size="9.00">&#45;1</text>
</g>
<!-- 0 -->
<g id="node8" class="node">
<title>0</title>
<ellipse fill="lightblue" stroke="black" cx="76.97" cy="-14.85" rx="14.7" ry="14.7"/>
<text text-anchor="middle" x="76.97" y="-12.65" font-family="Times,serif" font-size="9.00">0</text>
</g>
<!-- &#45;1&#45;&gt;0 -->
<g id="edge1" class="edge">
<title>&#45;1&#45;&gt;0</title>
<path fill="none" stroke="green" stroke-width="0.13" d="M70.91,-65.74C71.84,-58.03 72.99,-48.62 74.03,-40.05"/>
<polygon fill="green" stroke="green" stroke-width="0.13" points="77.54,-40.2 75.27,-29.85 70.59,-39.35 77.54,-40.2"/>
</g>
<!-- 1 -->
<g id="node9" class="node">
<title>1</title>
<ellipse fill="lightblue" stroke="black" cx="124.97" cy="-14.85" rx="14.7" ry="14.7"/>
<text text-anchor="middle" x="124.97" y="-12.65" font-family="Times,serif" font-size="9.00">1</text>
</g>
<!-- &#45;1&#45;&gt;1 -->
<g id="edge2" class="edge">
<title>&#45;1&#45;&gt;1</title>
<path fill="none" stroke="red" stroke-width="0.12" d="M79.5,-69.29C87.78,-59.56 99.46,-45.83 108.91,-34.73"/>
<polygon fill="red" stroke="red" stroke-width="0.12" points="111.79,-36.75 115.6,-26.86 106.46,-32.21 111.79,-36.75"/>
</g>
<!-- 2 -->
<g id="node10" class="node">
<title>2</title>
<ellipse fill="lightblue" stroke="black" cx="172.97" cy="-14.85" rx="14.7" ry="14.7"/>
<text text-anchor="middle" x="172.97" y="-12.65" font-family="Times,serif" font-size="9.00">2</text>
</g>
<!-- &#45;1&#45;&gt;2 -->
<g id="edge3" class="edge">
<title>&#45;1&#45;&gt;2</title>
<path fill="none" stroke="green" stroke-width="0.12" d="M83,-72.79C100.79,-61.53 131.61,-42.02 152.15,-29.02"/>
<polygon fill="green" stroke="green" stroke-width="0.12" points="154.2,-31.87 160.78,-23.56 150.46,-25.95 154.2,-31.87"/>
</g>
<!-- 3 -->
<g id="node11" class="node">
<title>3</title>
<ellipse fill="lightblue" stroke="black" cx="220.97" cy="-14.85" rx="14.7" ry="14.7"/>
<text text-anchor="middle" x="220.97" y="-12.65" font-family="Times,serif" font-size="9.00">3</text>
</g>
<!-- &#45;1&#45;&gt;3 -->
<g id="edge4" class="edge">
<title>&#45;1&#45;&gt;3</title>
<path fill="none" stroke="green" stroke-width="0.13" d="M82.7,-72.49C86.58,-70.11 90.86,-67.66 94.97,-65.7 138.36,-45 153.3,-49.8 196.97,-29.7 197.81,-29.31 198.66,-28.9 199.52,-28.48"/>
<polygon fill="green" stroke="green" stroke-width="0.13" points="201.36,-31.46 208.5,-23.63 198.04,-25.3 201.36,-31.46"/>
</g>
<!-- 4 -->
<g id="node12" class="node">
<title>4</title>
<ellipse fill="lightblue" stroke="black" cx="268.97" cy="-14.85" rx="14.7" ry="14.7"/>
<text text-anchor="middle" x="268.97" y="-12.65" font-family="Times,serif" font-size="9.00">4</text>
</g>
<!-- &#45;1&#45;&gt;4 -->
<g id="edge5" class="edge">
<title>&#45;1&#45;&gt;4</title>
<path fill="none" stroke="green" stroke-width="0.12" d="M82.57,-72.2C86.45,-69.82 90.76,-67.44 94.97,-65.7 158.3,-39.43 181.29,-55.09 244.97,-29.7 245.83,-29.36 246.7,-28.99 247.56,-28.6"/>
<polygon fill="green" stroke="green" stroke-width="0.12" points="249.35,-31.61 256.61,-23.89 246.12,-25.4 249.35,-31.61"/>
</g>
<!-- 5 -->
<g id="node13" class="node">
<title>5</title>
<ellipse fill="lightblue" stroke="black" cx="316.97" cy="-14.85" rx="14.7" ry="14.7"/>
<text text-anchor="middle" x="316.97" y="-12.65" font-family="Times,serif" font-size="9.00">5</text>
</g>
<!-- &#45;1&#45;&gt;5 -->
<g id="edge6" class="edge">
<title>&#45;1&#45;&gt;5</title>
<path fill="none" stroke="green" stroke-width="0.15" d="M82.51,-72.05C86.39,-69.66 90.72,-67.33 94.97,-65.7 178.51,-33.74 209,-60.5 292.97,-29.7 293.84,-29.38 294.71,-29.03 295.59,-28.66"/>
<polygon fill="green" stroke="green" stroke-width="0.15" points="297.34,-31.69 304.66,-24.03 294.16,-25.45 297.34,-31.69"/>
</g>
<!-- 6 -->
<g id="node14" class="node">
<title>6</title>
<ellipse fill="lightblue" stroke="black" cx="28.97" cy="-14.85" rx="14.7" ry="14.7"/>
<text text-anchor="middle" x="28.97" y="-12.65" font-family="Times,serif" font-size="9.00">6</text>
</g>
<!-- &#45;1&#45;&gt;6 -->
<g id="edge7" class="edge">
<title>&#45;1&#45;&gt;6</title>
<path fill="none" stroke="green" stroke-width="0.16" d="M60.49,-67.71C55.01,-58.7 47.78,-46.8 41.63,-36.68"/>
<polygon fill="green" stroke="green" stroke-width="0.16" points="44.55,-34.75 36.37,-28.02 38.57,-38.38 44.55,-34.75"/>
</g>
<!-- &#45;2 -->
<g id="node2" class="node">
<title>&#45;2</title>
<ellipse fill="lightgray" stroke="black" cx="120.97" cy="-82.67" rx="16.94" ry="16.94"/>
<text text-anchor="middle" x="120.97" y="-80.47" font-family="Times,serif" font-size="9.00">&#45;2</text>
</g>
<!-- &#45;2&#45;&gt;0 -->
<g id="edge8" class="edge">
<title>&#45;2&#45;&gt;0</title>
<path fill="none" stroke="green" stroke-width="0.12" d="M111.85,-68.03C105.7,-58.83 97.47,-46.52 90.55,-36.17"/>
<polygon fill="green" stroke="green" stroke-width="0.12" points="93.36,-34.07 84.9,-27.7 87.54,-37.96 93.36,-34.07"/>
</g>
<!-- &#45;2&#45;&gt;1 -->
<g id="edge9" class="edge">
<title>&#45;2&#45;&gt;1</title>
<path fill="none" stroke="green" stroke-width="0.11" d="M121.96,-65.4C122.43,-57.69 123,-48.33 123.51,-39.83"/>
<polygon fill="green" stroke="green" stroke-width="0.11" points="127.02,-39.9 124.13,-29.71 120.03,-39.48 127.02,-39.9"/>
</g>
<!-- &#45;2&#45;&gt;2 -->
<g id="edge10" class="edge">
<title>&#45;2&#45;&gt;2</title>
<path fill="none" stroke="green" stroke-width="0.11" d="M131.24,-68.67C138.81,-59.09 149.22,-45.91 157.76,-35.11"/>
<polygon fill="green" stroke="green" stroke-width="0.11" points="160.65,-37.09 164.1,-27.07 155.16,-32.75 160.65,-37.09"/>
</g>
<!-- &#45;2&#45;&gt;3 -->
<g id="edge11" class="edge">
<title>&#45;2&#45;&gt;3</title>
<path fill="none" stroke="green" stroke-width="0.13" d="M134.88,-72.52C151.83,-61.36 180.65,-42.39 200.23,-29.5"/>
<polygon fill="green" stroke="green" stroke-width="0.13" points="202.32,-32.31 208.75,-23.89 198.48,-26.47 202.32,-32.31"/>
</g>
<!-- &#45;2&#45;&gt;4 -->
<g id="edge12" class="edge">
<title>&#45;2&#45;&gt;4</title>
<path fill="none" stroke="green" stroke-width="0.14" d="M134.72,-72.52C138.59,-70.14 142.87,-67.69 146.97,-65.7 188.72,-45.46 202.94,-49.37 244.97,-29.7 245.81,-29.31 246.66,-28.89 247.51,-28.47"/>
<polygon fill="green" stroke="green" stroke-width="0.14" points="249.36,-31.44 256.48,-23.6 246.02,-25.29 249.36,-31.44"/>
</g>
<!-- &#45;2&#45;&gt;5 -->
<g id="edge13" class="edge">
<title>&#45;2&#45;&gt;5</title>
<path fill="none" stroke="green" stroke-width="0.13" d="M134.58,-72.22C138.45,-69.84 142.77,-67.46 146.97,-65.7 208.62,-39.9 230.97,-54.65 292.97,-29.7 293.83,-29.35 294.7,-28.98 295.56,-28.59"/>
<polygon fill="green" stroke="green" stroke-width="0.13" points="297.36,-31.6 304.6,-23.87 294.12,-25.39 297.36,-31.6"/>
</g>
<!-- &#45;2&#45;&gt;6 -->
<g id="edge14" class="edge">
<title>&#45;2&#45;&gt;6</title>
<path fill="none" stroke="green" stroke-width="0.1" d="M107.4,-71.96C91.99,-60.93 66.7,-42.85 49.02,-30.19"/>
<polygon fill="green" stroke="green" stroke-width="0.1" points="50.73,-27.11 40.56,-24.14 46.66,-32.81 50.73,-27.11"/>
</g>
<!-- &#45;3 -->
<g id="node3" class="node">
<title>&#45;3</title>
<ellipse fill="lightgray" stroke="black" cx="172.97" cy="-82.67" rx="16.94" ry="16.94"/>
<text text-anchor="middle" x="172.97" y="-80.47" font-family="Times,serif" font-size="9.00">&#45;3</text>
</g>
<!-- &#45;3&#45;&gt;0 -->
<g id="edge15" class="edge">
<title>&#45;3&#45;&gt;0</title>
<path fill="none" stroke="green" stroke-width="0.14" d="M159.22,-72.24C143,-61.12 115.9,-42.54 97.27,-29.76"/>
<polygon fill="green" stroke="green" stroke-width="0.14" points="99.11,-26.79 88.88,-24.02 95.15,-32.56 99.11,-26.79"/>
</g>
<!-- &#45;3&#45;&gt;1 -->
<g id="edge16" class="edge">
<title>&#45;3&#45;&gt;1</title>
<path fill="none" stroke="green" stroke-width="0.14" d="M163.26,-68.35C156.41,-58.96 147.12,-46.22 139.41,-35.64"/>
<polygon fill="green" stroke="green" stroke-width="0.14" points="142.11,-33.41 133.39,-27.39 136.45,-37.53 142.11,-33.41"/>
</g>
<!-- &#45;3&#45;&gt;2 -->
<g id="edge17" class="edge">
<title>&#45;3&#45;&gt;2</title>
<path fill="none" stroke="green" stroke-width="0.11" d="M172.97,-65.4C172.97,-57.69 172.97,-48.33 172.97,-39.83"/>
<polygon fill="green" stroke="green" stroke-width="0.11" points="176.47,-39.71 172.97,-29.71 169.47,-39.71 176.47,-39.71"/>
</g>
<!-- &#45;3&#45;&gt;3 -->
<g id="edge18" class="edge">
<title>&#45;3&#45;&gt;3</title>
<path fill="none" stroke="green" stroke-width="0.14" d="M182.68,-68.35C189.53,-58.96 198.82,-46.22 206.53,-35.64"/>
<polygon fill="green" stroke="green" stroke-width="0.14" points="209.49,-37.53 212.55,-27.39 203.83,-33.41 209.49,-37.53"/>
</g>
<!-- &#45;3&#45;&gt;4 -->
<g id="edge19" class="edge">
<title>&#45;3&#45;&gt;4</title>
<path fill="none" stroke="red" stroke-width="0.11" d="M186.73,-72.24C202.94,-61.12 230.04,-42.54 248.68,-29.76"/>
<polygon fill="red" stroke="red" stroke-width="0.11" points="250.79,-32.56 257.06,-24.02 246.83,-26.79 250.79,-32.56"/>
</g>
<!-- &#45;3&#45;&gt;5 -->
<g id="edge20" class="edge">
<title>&#45;3&#45;&gt;5</title>
<path fill="none" stroke="green" stroke-width="0.12" d="M186.73,-72.56C190.61,-70.18 194.88,-67.71 198.97,-65.7 239.09,-45.91 252.58,-48.94 292.97,-29.7 293.81,-29.3 294.65,-28.88 295.5,-28.45"/>
<polygon fill="green" stroke="green" stroke-width="0.12" points="297.36,-31.42 304.47,-23.56 294.01,-25.28 297.36,-31.42"/>
</g>
<!-- &#45;3&#45;&gt;6 -->
<g id="edge21" class="edge">
<title>&#45;3&#45;&gt;6</title>
<path fill="none" stroke="green" stroke-width="0.12" d="M159.21,-72.56C155.33,-70.18 151.06,-67.71 146.97,-65.7 106.85,-45.91 93.36,-48.94 52.97,-29.7 52.13,-29.3 51.29,-28.88 50.44,-28.45"/>
<polygon fill="green" stroke="green" stroke-width="0.12" points="51.93,-25.28 41.47,-23.56 48.58,-31.42 51.93,-25.28"/>
</g>
<!-- &#45;4 -->
<g id="node4" class="node">
<title>&#45;4</title>
<ellipse fill="lightgray" stroke="black" cx="224.97" cy="-82.67" rx="16.94" ry="16.94"/>
<text text-anchor="middle" x="224.97" y="-80.47" font-family="Times,serif" font-size="9.00">&#45;4</text>
</g>
<!-- &#45;4&#45;&gt;0 -->
<g id="edge22" class="edge">
<title>&#45;4&#45;&gt;0</title>
<path fill="none" stroke="green" stroke-width="0.13" d="M211.23,-72.52C207.35,-70.14 203.07,-67.69 198.97,-65.7 157.22,-45.46 143,-49.37 100.97,-29.7 100.13,-29.31 99.28,-28.89 98.43,-28.47"/>
<polygon fill="green" stroke="green" stroke-width="0.13" points="99.92,-25.29 89.46,-23.6 96.58,-31.44 99.92,-25.29"/>
</g>
<!-- &#45;4&#45;&gt;1 -->
<g id="edge23" class="edge">
<title>&#45;4&#45;&gt;1</title>
<path fill="none" stroke="green" stroke-width="0.13" d="M211.07,-72.52C194.11,-61.36 165.29,-42.39 145.71,-29.5"/>
<polygon fill="green" stroke="green" stroke-width="0.13" points="147.47,-26.47 137.19,-23.89 143.62,-32.31 147.47,-26.47"/>
</g>
<!-- &#45;4&#45;&gt;2 -->
<g id="edge24" class="edge">
<title>&#45;4&#45;&gt;2</title>
<path fill="none" stroke="green" stroke-width="0.11" d="M214.7,-68.67C207.13,-59.09 196.72,-45.91 188.19,-35.11"/>
<polygon fill="green" stroke="green" stroke-width="0.11" points="190.78,-32.75 181.84,-27.07 185.29,-37.09 190.78,-32.75"/>
</g>
<!-- &#45;4&#45;&gt;3 -->
<g id="edge25" class="edge">
<title>&#45;4&#45;&gt;3</title>
<path fill="none" stroke="green" stroke-width="0.14" d="M223.98,-65.4C223.51,-57.69 222.94,-48.33 222.43,-39.83"/>
<polygon fill="green" stroke="green" stroke-width="0.14" points="225.91,-39.48 221.81,-29.71 218.93,-39.9 225.91,-39.48"/>
</g>
<!-- &#45;4&#45;&gt;4 -->
<g id="edge26" class="edge">
<title>&#45;4&#45;&gt;4</title>
<path fill="none" stroke="green" stroke-width="0.11" d="M234.09,-68.03C240.24,-58.83 248.47,-46.52 255.39,-36.17"/>
<polygon fill="green" stroke="green" stroke-width="0.11" points="258.4,-37.96 261.05,-27.7 252.58,-34.07 258.4,-37.96"/>
</g>
<!-- &#45;4&#45;&gt;5 -->
<g id="edge27" class="edge">
<title>&#45;4&#45;&gt;5</title>
<path fill="none" stroke="green" stroke-width="0.17" d="M238.55,-71.96C253.95,-60.93 279.24,-42.85 296.92,-30.19"/>
<polygon fill="green" stroke="green" stroke-width="0.17" points="299.28,-32.81 305.38,-24.14 295.21,-27.11 299.28,-32.81"/>
</g>
<!-- &#45;4&#45;&gt;6 -->
<g id="edge28" class="edge">
<title>&#45;4&#45;&gt;6</title>
<path fill="none" stroke="green" stroke-width="0.12" d="M211.36,-72.22C207.49,-69.84 203.17,-67.46 198.97,-65.7 137.32,-39.9 114.97,-54.65 52.97,-29.7 52.11,-29.35 51.25,-28.98 50.38,-28.59"/>
<polygon fill="green" stroke="green" stroke-width="0.12" points="51.82,-25.39 41.34,-23.87 48.59,-31.6 51.82,-25.39"/>
</g>
<!-- &#45;5 -->
<g id="node5" class="node">
<title>&#45;5</title>
<ellipse fill="lightgray" stroke="black" cx="276.97" cy="-82.67" rx="16.94" ry="16.94"/>
<text text-anchor="middle" x="276.97" y="-80.47" font-family="Times,serif" font-size="9.00">&#45;5</text>
</g>
<!-- &#45;5&#45;&gt;0 -->
<g id="edge29" class="edge">
<title>&#45;5&#45;&gt;0</title>
<path fill="none" stroke="green" stroke-width="0.13" d="M263.37,-72.2C259.49,-69.82 255.18,-67.44 250.97,-65.7 187.64,-39.43 164.65,-55.09 100.97,-29.7 100.11,-29.36 99.24,-28.99 98.38,-28.6"/>
<polygon fill="green" stroke="green" stroke-width="0.13" points="99.82,-25.4 89.33,-23.89 96.59,-31.61 99.82,-25.4"/>
</g>
<!-- &#45;5&#45;&gt;1 -->
<g id="edge30" class="edge">
<title>&#45;5&#45;&gt;1</title>
<path fill="none" stroke="green" stroke-width="0.1" d="M263.24,-72.49C259.37,-70.11 255.08,-67.66 250.97,-65.7 207.58,-45 192.64,-49.8 148.97,-29.7 148.13,-29.31 147.28,-28.9 146.43,-28.48"/>
<polygon fill="green" stroke="green" stroke-width="0.1" points="147.91,-25.3 137.44,-23.63 144.58,-31.46 147.91,-25.3"/>
</g>
<!-- &#45;5&#45;&gt;2 -->
<g id="edge31" class="edge">
<title>&#45;5&#45;&gt;2</title>
<path fill="none" stroke="green" stroke-width="0.13" d="M262.94,-72.79C245.15,-61.53 214.33,-42.02 193.79,-29.02"/>
<polygon fill="green" stroke="green" stroke-width="0.13" points="195.48,-25.95 185.16,-23.56 191.74,-31.87 195.48,-25.95"/>
</g>
<!-- &#45;5&#45;&gt;3 -->
<g id="edge32" class="edge">
<title>&#45;5&#45;&gt;3</title>
<path fill="none" stroke="green" stroke-width="0.12" d="M266.44,-69.29C258.16,-59.56 246.48,-45.83 237.04,-34.73"/>
<polygon fill="green" stroke="green" stroke-width="0.12" points="239.49,-32.21 230.34,-26.86 234.15,-36.75 239.49,-32.21"/>
</g>
<!-- &#45;5&#45;&gt;4 -->
<g id="edge33" class="edge">
<title>&#45;5&#45;&gt;4</title>
<path fill="none" stroke="green" stroke-width="0.12" d="M275.03,-65.74C274.1,-58.03 272.95,-48.62 271.91,-40.05"/>
<polygon fill="green" stroke="green" stroke-width="0.12" points="275.35,-39.35 270.67,-29.85 268.4,-40.2 275.35,-39.35"/>
</g>
<!-- &#45;5&#45;&gt;5 -->
<g id="edge34" class="edge">
<title>&#45;5&#45;&gt;5</title>
<path fill="none" stroke="green" stroke-width="0.16" d="M285.45,-67.71C290.93,-58.7 298.16,-46.8 304.31,-36.68"/>
<polygon fill="green" stroke="green" stroke-width="0.16" points="307.37,-38.38 309.58,-28.02 301.39,-34.75 307.37,-38.38"/>
</g>
<!-- &#45;5&#45;&gt;6 -->
<g id="edge35" class="edge">
<title>&#45;5&#45;&gt;6</title>
<path fill="none" stroke="green" stroke-width="0.12" d="M263.43,-72.05C259.56,-69.66 255.23,-67.33 250.97,-65.7 167.43,-33.74 136.94,-60.5 52.97,-29.7 52.1,-29.38 51.23,-29.03 50.35,-28.66"/>
<polygon fill="green" stroke="green" stroke-width="0.12" points="51.78,-25.45 41.28,-24.03 48.6,-31.69 51.78,-25.45"/>
</g>
<!-- &#45;6 -->
<g id="node6" class="node">
<title>&#45;6</title>
<ellipse fill="lightgray" stroke="black" cx="328.97" cy="-82.67" rx="16.94" ry="16.94"/>
<text text-anchor="middle" x="328.97" y="-80.47" font-family="Times,serif" font-size="9.00">&#45;6</text>
</g>
<!-- &#45;6&#45;&gt;0 -->
<g id="edge36" class="edge">
<title>&#45;6&#45;&gt;0</title>
<path fill="none" stroke="green" stroke-width="0.12" d="M315.43,-72.04C311.56,-69.65 307.23,-67.32 302.97,-65.7 217.74,-33.27 186.64,-60.96 100.97,-29.7 100.1,-29.38 99.23,-29.03 98.35,-28.66"/>
<polygon fill="green" stroke="green" stroke-width="0.12" points="99.77,-25.46 89.27,-24.04 96.6,-31.7 99.77,-25.46"/>
</g>
<!-- &#45;6&#45;&gt;1 -->
<g id="edge37" class="edge">
<title>&#45;6&#45;&gt;1</title>
<path fill="none" stroke="red" stroke-width="0.11" d="M315.38,-72.19C311.5,-69.8 307.18,-67.43 302.97,-65.7 237.97,-38.96 214.34,-55.54 148.97,-29.7 148.11,-29.36 147.24,-28.99 146.37,-28.6"/>
<polygon fill="red" stroke="red" stroke-width="0.11" points="147.81,-25.41 137.33,-23.9 144.59,-31.62 147.81,-25.41"/>
</g>
<!-- &#45;6&#45;&gt;2 -->
<g id="edge38" class="edge">
<title>&#45;6&#45;&gt;2</title>
<path fill="none" stroke="green" stroke-width="0.14" d="M315.26,-72.46C311.38,-70.07 307.09,-67.64 302.97,-65.7 257.94,-44.55 242.29,-50.23 196.97,-29.7 196.13,-29.32 195.27,-28.91 194.42,-28.49"/>
<polygon fill="green" stroke="green" stroke-width="0.14" points="195.89,-25.31 185.43,-23.66 192.58,-31.48 195.89,-25.31"/>
</g>
<!-- &#45;6&#45;&gt;3 -->
<g id="edge39" class="edge">
<title>&#45;6&#45;&gt;3</title>
<path fill="none" stroke="green" stroke-width="0.1" d="M314.94,-73.04C311.07,-70.66 306.86,-68.07 302.97,-65.7 282.29,-53.06 258.64,-38.69 242.07,-28.64"/>
<polygon fill="green" stroke="green" stroke-width="0.1" points="243.57,-25.46 233.21,-23.26 239.94,-31.44 243.57,-25.46"/>
</g>
<!-- &#45;6&#45;&gt;4 -->
<g id="edge40" class="edge">
<title>&#45;6&#45;&gt;4</title>
<path fill="none" stroke="green" stroke-width="0.13" d="M317.97,-69.6C308.93,-59.68 295.98,-45.48 285.67,-34.17"/>
<polygon fill="green" stroke="green" stroke-width="0.13" points="288.04,-31.57 278.71,-26.54 282.87,-36.29 288.04,-31.57"/>
</g>
<!-- &#45;6&#45;&gt;5 -->
<g id="edge41" class="edge">
<title>&#45;6&#45;&gt;5</title>
<path fill="none" stroke="green" stroke-width="0.16" d="M326.07,-65.74C324.65,-57.95 322.91,-48.41 321.33,-39.77"/>
<polygon fill="green" stroke="green" stroke-width="0.16" points="324.76,-39.06 319.52,-29.85 317.87,-40.31 324.76,-39.06"/>
</g>
<!-- &#45;6&#45;&gt;6 -->
<g id="edge42" class="edge">
<title>&#45;6&#45;&gt;6</title>
<path fill="none" stroke="green" stroke-width="0.15" d="M315.47,-71.94C311.59,-69.56 307.25,-67.25 302.97,-65.7 197.4,-27.53 159.05,-66.41 52.97,-29.7 52.1,-29.4 51.22,-29.06 50.34,-28.7"/>
<polygon fill="green" stroke="green" stroke-width="0.15" points="51.75,-25.49 41.24,-24.13 48.61,-31.74 51.75,-25.49"/>
</g>
<!-- &#45;7 -->
<g id="node7" class="node">
<title>&#45;7</title>
<ellipse fill="lightgray" stroke="black" cx="16.97" cy="-82.67" rx="16.94" ry="16.94"/>
<text text-anchor="middle" x="16.97" y="-80.47" font-family="Times,serif" font-size="9.00">&#45;7</text>
</g>
<!-- &#45;7&#45;&gt;0 -->
<g id="edge43" class="edge">
<title>&#45;7&#45;&gt;0</title>
<path fill="none" stroke="green" stroke-width="0.1" d="M27.98,-69.6C37.01,-59.68 49.96,-45.48 60.27,-34.17"/>
<polygon fill="green" stroke="green" stroke-width="0.1" points="63.08,-36.29 67.23,-26.54 57.9,-31.57 63.08,-36.29"/>
</g>
<!-- &#45;7&#45;&gt;1 -->
<g id="edge44" class="edge">
<title>&#45;7&#45;&gt;1</title>
<path fill="none" stroke="green" stroke-width="0.14" d="M31,-73.04C34.87,-70.66 39.08,-68.07 42.97,-65.7 63.65,-53.06 87.3,-38.69 103.87,-28.64"/>
<polygon fill="green" stroke="green" stroke-width="0.14" points="106,-31.44 112.73,-23.26 102.37,-25.46 106,-31.44"/>
</g>
<!-- &#45;7&#45;&gt;2 -->
<g id="edge45" class="edge">
<title>&#45;7&#45;&gt;2</title>
<path fill="none" stroke="green" stroke-width="0.16" d="M30.68,-72.46C34.56,-70.07 38.85,-67.64 42.97,-65.7 88,-44.55 103.65,-50.23 148.97,-29.7 149.81,-29.32 150.67,-28.91 151.52,-28.49"/>
<polygon fill="green" stroke="green" stroke-width="0.16" points="153.36,-31.48 160.51,-23.66 150.05,-25.31 153.36,-31.48"/>
</g>
<!-- &#45;7&#45;&gt;3 -->
<g id="edge46" class="edge">
<title>&#45;7&#45;&gt;3</title>
<path fill="none" stroke="green" stroke-width="0.12" d="M30.57,-72.19C34.44,-69.8 38.76,-67.43 42.97,-65.7 107.98,-38.96 131.6,-55.54 196.97,-29.7 197.83,-29.36 198.7,-28.99 199.57,-28.6"/>
<polygon fill="green" stroke="green" stroke-width="0.12" points="201.35,-31.62 208.62,-23.9 198.13,-25.41 201.35,-31.62"/>
</g>
<!-- &#45;7&#45;&gt;4 -->
<g id="edge47" class="edge">
<title>&#45;7&#45;&gt;4</title>
<path fill="none" stroke="green" stroke-width="0.15" d="M30.51,-72.04C34.38,-69.65 38.71,-67.32 42.97,-65.7 128.2,-33.27 159.3,-60.96 244.97,-29.7 245.84,-29.38 246.72,-29.03 247.59,-28.66"/>
<polygon fill="green" stroke="green" stroke-width="0.15" points="249.34,-31.7 256.67,-24.04 246.17,-25.46 249.34,-31.7"/>
</g>
<!-- &#45;7&#45;&gt;5 -->
<g id="edge48" class="edge">
<title>&#45;7&#45;&gt;5</title>
<path fill="none" stroke="green" stroke-width="0.13" d="M30.47,-71.94C34.35,-69.56 38.69,-67.25 42.97,-65.7 148.54,-27.53 186.89,-66.41 292.97,-29.7 293.85,-29.4 294.72,-29.06 295.6,-28.7"/>
<polygon fill="green" stroke="green" stroke-width="0.13" points="297.34,-31.74 304.7,-24.13 294.19,-25.49 297.34,-31.74"/>
</g>
<!-- &#45;7&#45;&gt;6 -->
<g id="edge49" class="edge">
<title>&#45;7&#45;&gt;6</title>
<path fill="none" stroke="green" stroke-width="0.11" d="M19.88,-65.74C21.3,-57.95 23.03,-48.41 24.61,-39.77"/>
<polygon fill="green" stroke="green" stroke-width="0.11" points="28.07,-40.31 26.42,-29.85 21.18,-39.06 28.07,-40.31"/>
</g>
</g>
</svg>
